<?xml version="1.0" encoding="iso-8859-1"?>
<!-- Uploaded to: SVG Repo, www.svgrepo.com, Generator: SVG Repo Mixer Tools -->
<svg fill="#000000" height="800px" width="800px" version="1.1" id="Layer_1" xmlns="http://www.w3.org/2000/svg" xmlns:xlink="http://www.w3.org/1999/xlink" 
	 viewBox="0 0 512 512" xml:space="preserve">
<g>
	<g>
		<path d="M450.364,291.073V41.88H233.732V0H127.247v63.896c-37.055,24.222-61.594,66.07-61.594,113.548v113.628h61.594v33.929
			c-37.092,5.623-65.611,37.722-65.611,76.36v33.404c0,42.587,34.648,77.234,77.235,77.234h10.147
			c42.587,0,77.234-34.647,77.234-77.234v-33.402c0-38.639-28.521-70.741-65.614-76.361v-33.929H450.364z M103.163,460.159
			c-5.114-7.17-8.136-15.932-8.136-25.392v-33.404c0-9.46,3.022-18.223,8.136-25.393V460.159z M184.727,375.973
			c5.113,7.17,8.133,15.932,8.133,25.391v33.402c0,9.459-3.021,18.218-8.133,25.389V375.973z M160.637,33.391h39.702v8.5
			c-13.817,0.088-27.15,2.25-39.702,6.195V33.391z M151.337,471.219c0,4.074-3.317,7.39-7.394,7.39c-4.075,0-7.388-3.316-7.388-7.39
			v-106.31c0-4.076,3.315-7.393,7.388-7.393c4.077,0,7.394,3.316,7.394,7.393V471.219z M99.044,257.682v-80.237
			c0-56.338,45.834-102.173,102.172-102.173h215.757v182.41H99.044z"/>
	</g>
</g>
<g>
	<g>
		<path d="M234.255,99.457V191.4h157.97V99.457H234.255z M358.834,158.008h-91.186v-25.159h91.186V158.008z"/>
	</g>
</g>
</svg>